<?xml version="1.0" encoding="UTF-8" standalone="no"?>
<svg
   id="Capa_1"
   data-name="Capa 1"
   viewBox="0 0 350 86"
   version="1.1"
   sodipodi:docname="logo-utec-derecha.svg"
   inkscape:version="1.3.2 (091e20e, 2023-11-25, custom)"
   xmlns:inkscape="http://www.inkscape.org/namespaces/inkscape"
   xmlns:sodipodi="http://sodipodi.sourceforge.net/DTD/sodipodi-0.dtd"
   xmlns="http://www.w3.org/2000/svg"
   xmlns:svg="http://www.w3.org/2000/svg">
  <sodipodi:namedview
     id="namedview26"
     pagecolor="#505050"
     bordercolor="#eeeeee"
     borderopacity="1"
     inkscape:showpageshadow="0"
     inkscape:pageopacity="0"
     inkscape:pagecheckerboard="0"
     inkscape:deskcolor="#505050"
     inkscape:zoom="3.8685714"
     inkscape:cx="175"
     inkscape:cy="56.739291"
     inkscape:window-width="1920"
     inkscape:window-height="1111"
     inkscape:window-x="-9"
     inkscape:window-y="-9"
     inkscape:window-maximized="1"
     inkscape:current-layer="Capa_1" />
  <defs
     id="defs1">
    <style
       id="style1">
      .cls-1 {
        fill: #fff;
        stroke-width: 0px;
      }
    </style>
  </defs>
  <path
     class="cls-1"
     d="m 189.34829,39.61452 h 3.45 v 13.75 c 0,4.45 -2.23,6.59 -5.93,6.59 -3.7,0 -5.89,-2.36 -5.89,-6.76 v -13.57 h 3.45 v -4.41 h -11.52 v 4.41 h 3.14 v 13.83 c 0,7.42 4.41,11 10.82,11 6.41,0 10.73,-3.58 10.73,-11.08 v -13.75 h 3.14 v -4.41 h -11.39 v 4.41 z"
     id="path1" />
  <polygon
     class="cls-1"
     points="121.29,44.19 121.29,40.26 126.61,40.26 126.61,60.29 123.03,60.29 123.03,64.7 135.12,64.7 135.12,60.29 131.54,60.29 131.54,40.26 136.86,40.26 136.86,44.19 141.53,44.19 141.53,35.99 116.62,35.99 116.62,44.19 "
     id="polygon1"
     transform="translate(86.078287,-0.77548006)" />
  <polygon
     class="cls-1"
     points="152.35,60.33 152.35,52.22 161.04,52.22 161.04,48.03 152.35,48.03 152.35,40.35 160.86,40.35 160.86,44.19 165.57,44.19 165.57,35.99 144.15,35.99 144.15,40.39 147.42,40.39 147.42,60.29 144.15,60.29 144.15,64.7 165.62,64.7 165.62,56.49 160.9,56.49 160.9,60.33 "
     id="polygon2"
     transform="translate(86.078287,-0.77548006)" />
  <path
     class="cls-1"
     d="m 281.62829,39.66452 c -1.34,-1.49 -3,-2.69 -4.86,-3.54 -1.18,-0.57 -2.57,-1.01 -4.13,-1.24 0,0 0,0 0,0 -0.17,-0.03 -0.35,-0.05 -0.52,-0.07 -0.23,-0.03 -0.47,-0.05 -0.71,-0.07 -0.08,0 -0.16,-0.01 -0.24,-0.02 -0.35,-0.02 -0.7,-0.04 -1.06,-0.04 -0.01,0 -0.02,0 -0.04,0 -0.02,0 -0.03,0 -0.05,0 -0.49,0 -0.97,0.02 -1.44,0.06 -0.1,0 -0.2,0.02 -0.3,0.03 -0.26,0.03 -0.51,0.06 -0.76,0.1 -7.04,0.99 -11.99,6.01 -12.53,13.32 -0.03,0.45 -0.06,0.9 -0.06,1.37 0,0.47 0.03,0.92 0.06,1.36 0.55,7.31 5.49,12.33 12.53,13.32 0.25,0.04 0.5,0.07 0.76,0.1 0.1,0.01 0.2,0.02 0.3,0.03 0.47,0.04 0.95,0.06 1.44,0.06 0.02,0 0.03,0 0.05,0 0.01,0 0.03,0 0.04,0 0.36,0 0.71,-0.02 1.06,-0.04 0.08,0 0.16,-0.01 0.24,-0.02 0.24,-0.02 0.48,-0.04 0.71,-0.07 0.17,-0.02 0.35,-0.04 0.52,-0.07 0,0 0,0 0,0 1.56,-0.23 2.95,-0.66 4.13,-1.24 1.86,-0.85 3.51,-2.05 4.85,-3.53 v 0 -5.63 h -4.73 v 3.55 c -0.81,0.65 -1.69,1.2 -2.64,1.61 -0.86,0.37 -1.78,0.63 -2.76,0.76 -0.14,0.02 -0.28,0.03 -0.42,0.04 -0.22,0.02 -0.45,0.03 -0.68,0.04 -0.12,0 -0.24,0 -0.37,0.01 -6,-0.05 -9.97,-4.58 -9.99,-10.29 0.02,-5.71 3.99,-10.25 9.99,-10.3 0.13,0 0.25,0 0.37,0.01 0.23,0 0.46,0.02 0.68,0.04 0.14,0.01 0.28,0.02 0.42,0.04 0.98,0.13 1.9,0.39 2.76,0.76 0.95,0.41 1.83,0.96 2.64,1.61 v 3.56 h 4.73 v -5.63 0 0 z"
     id="path2" />
  <path
     class="cls-1"
     d="m 177.75829,74.11452 v -3.15 h 0.69 v 3.13 c 0,1.26 -0.6,1.87 -1.83,1.87 -1.23,0 -1.91,-0.61 -1.91,-1.87 v -3.13 h 0.77 v 3.15 c 0,0.98 0.49,1.24 1.18,1.24 0.69,0 1.1,-0.27 1.1,-1.24"
     id="path3" />
  <polygon
     class="cls-1"
     points="94.95,71.73 97.11,75.38 97.12,75.38 97.12,71.73 97.79,71.73 97.79,76.69 97.08,76.69 94.74,72.72 94.72,72.72 94.72,76.69 94.07,76.69 94.07,71.73 "
     id="polygon3"
     transform="translate(86.078287,-0.77548006)" />
  <rect
     class="cls-1"
     x="185.60829"
     y="70.954521"
     width="0.77999997"
     height="4.96"
     id="rect3" />
  <polygon
     class="cls-1"
     points="101.72,71.73 102.44,71.73 103.77,75.74 103.79,75.74 105.12,71.73 105.78,71.73 105.78,71.97 104.14,76.69 103.34,76.69 101.72,71.97 "
     id="polygon4"
     transform="translate(86.078287,-0.77548006)" />
  <polygon
     class="cls-1"
     points="110.21,71.73 110.21,72.33 107.94,72.33 107.94,73.87 109.6,73.87 109.6,74.44 107.94,74.44 107.94,76.11 110.29,76.11 110.29,76.69 107.17,76.69 107.17,71.73 "
     id="polygon5"
     transform="translate(86.078287,-0.77548006)" />
  <path
     class="cls-1"
     d="m 198.59829,73.28452 h 0.68 c 0.67,0 1.01,-0.24 1.01,-0.87 0,-0.63 -0.36,-0.86 -1.01,-0.86 h -0.68 v 1.74 z m 0.94,0.56 c -0.07,0 -0.15,0 -0.23,0 h -0.7 v 2.07 h -0.77 v -4.96 h 1.47 c 1.1,0 1.77,0.44 1.77,1.41 0,0.68 -0.3,1.11 -0.81,1.32 l 1.07,1.99 v 0.23 h -0.7 l -1.09,-2.08 z"
     id="path5" />
  <path
     class="cls-1"
     d="m 202.50829,75.54452 v -0.62 h 0.27 c 0.23,0.24 0.6,0.45 1.22,0.45 0.62,0 1.02,-0.26 1.02,-0.8 0,-0.62 -0.5,-0.7 -1.13,-0.88 -0.87,-0.25 -1.31,-0.61 -1.31,-1.41 0,-0.86 0.62,-1.37 1.58,-1.37 0.59,0 1.02,0.14 1.32,0.33 v 0.6 h -0.26 c -0.26,-0.21 -0.56,-0.35 -1.03,-0.35 -0.63,0 -0.93,0.26 -0.93,0.72 0,0.52 0.38,0.65 0.98,0.81 1.01,0.28 1.49,0.57 1.49,1.46 0,0.96 -0.63,1.47 -1.71,1.47 -0.7,0 -1.14,-0.17 -1.51,-0.42"
     id="path6" />
  <rect
     class="cls-1"
     x="207.17828"
     y="70.954521"
     width="0.77999997"
     height="4.96"
     id="rect6" />
  <path
     class="cls-1"
     d="m 211.09829,75.33452 c 1.17,0 1.71,-0.53 1.71,-1.9 0,-1.37 -0.54,-1.88 -1.71,-1.88 h -0.63 v 3.79 h 0.63 z m -1.4,-4.38 h 1.42 c 1.61,0 2.48,0.74 2.48,2.46 0,1.72 -0.88,2.49 -2.5,2.49 h -1.39 v -4.96 z"
     id="path7" />
  <path
     class="cls-1"
     d="m 215.79829,73.96452 h 1.44 l -0.72,-2.19 h -0.01 z m -1.26,1.72 1.64,-4.72 h 0.82 l 1.63,4.72 v 0.23 h -0.73 l -0.46,-1.39 h -1.82 l -0.45,1.39 h -0.63 z"
     id="path8" />
  <path
     class="cls-1"
     d="m 221.41829,75.33452 c 1.17,0 1.71,-0.53 1.71,-1.9 0,-1.37 -0.54,-1.88 -1.71,-1.88 h -0.63 v 3.79 h 0.63 z m -1.39,-4.38 h 1.42 c 1.61,0 2.48,0.74 2.48,2.46 0,1.72 -0.88,2.49 -2.5,2.49 h -1.39 v -4.96 z"
     id="path9" />
  <path
     class="cls-1"
     d="m 228.95829,75.33452 c 1.17,0 1.71,-0.53 1.71,-1.9 0,-1.37 -0.54,-1.88 -1.71,-1.88 h -0.63 v 3.79 h 0.63 z m -1.39,-4.38 h 1.42 c 1.61,0 2.48,0.74 2.48,2.46 0,1.72 -0.88,2.49 -2.5,2.49 h -1.39 v -4.96 z"
     id="path10" />
  <polygon
     class="cls-1"
     points="149.9,71.73 149.9,72.33 147.62,72.33 147.62,73.87 149.29,73.87 149.29,74.44 147.62,74.44 147.62,76.11 149.97,76.11 149.97,76.69 146.86,76.69 146.86,71.73 "
     id="polygon10"
     transform="translate(86.078287,-0.77548006)" />
  <rect
     class="cls-1"
     x="239.69829"
     y="70.954521"
     width="0.77999997"
     height="4.96"
     id="rect10" />
  <polygon
     class="cls-1"
     points="157.02,71.73 159.18,75.38 159.2,75.38 159.2,71.73 159.86,71.73 159.86,76.69 159.16,76.69 156.81,72.72 156.8,72.72 156.8,76.69 156.14,76.69 156.14,71.73 "
     id="polygon11"
     transform="translate(86.078287,-0.77548006)" />
  <path
     class="cls-1"
     d="m 247.40829,73.43452 c 0,-1.64 0.94,-2.52 2.34,-2.52 0.64,0 1.01,0.13 1.39,0.33 v 0.64 h -0.28 c -0.25,-0.22 -0.55,-0.38 -1.1,-0.38 -0.93,0 -1.54,0.56 -1.54,1.9 0,1.34 0.5,1.99 1.44,1.99 0.44,0 0.69,-0.08 0.9,-0.18 v -1.28 h -0.83 v -0.54 h 1.59 v 2.17 c -0.42,0.23 -0.96,0.38 -1.66,0.38 -1.4,0 -2.25,-0.87 -2.25,-2.52"
     id="path11" />
  <polygon
     class="cls-1"
     points="169.95,71.73 169.95,72.33 167.67,72.33 167.67,73.87 169.34,73.87 169.34,74.44 167.67,74.44 167.67,76.11 170.02,76.11 170.02,76.69 166.91,76.69 166.91,71.73 "
     id="polygon12"
     transform="translate(86.078287,-0.77548006)" />
  <polygon
     class="cls-1"
     points="172.37,71.73 174.53,75.38 174.54,75.38 174.54,71.73 175.21,71.73 175.21,76.69 174.5,76.69 172.16,72.72 172.14,72.72 172.14,76.69 171.49,76.69 171.49,71.73 "
     id="polygon13"
     transform="translate(86.078287,-0.77548006)" />
  <rect
     class="cls-1"
     x="263.02829"
     y="70.954521"
     width="0.77999997"
     height="4.96"
     id="rect13" />
  <polygon
     class="cls-1"
     points="182.51,71.73 182.51,72.33 180.24,72.33 180.24,73.87 181.9,73.87 181.9,74.44 180.24,74.44 180.24,76.11 182.59,76.11 182.59,76.69 179.47,76.69 179.47,71.73 "
     id="polygon14"
     transform="translate(86.078287,-0.77548006)" />
  <path
     class="cls-1"
     d="m 270.89829,73.28452 h 0.68 c 0.67,0 1.01,-0.24 1.01,-0.87 0,-0.63 -0.36,-0.86 -1.01,-0.86 h -0.68 v 1.74 z m 0.93,0.56 c -0.07,0 -0.15,0 -0.23,0 h -0.7 v 2.07 h -0.76 v -4.96 h 1.47 c 1.1,0 1.77,0.44 1.77,1.41 0,0.68 -0.3,1.11 -0.81,1.32 l 1.07,1.99 v 0.23 h -0.7 l -1.09,-2.08 z"
     id="path14" />
  <path
     class="cls-1"
     d="m 275.27829,70.62452 0.31,-0.67 h 0.73 v 0.23 l -0.62,0.62 h -0.42 z m -0.16,0.33 h 0.78 v 4.96 h -0.78 z"
     id="path15" />
  <path
     class="cls-1"
     d="m 278.57829,73.96452 h 1.44 l -0.72,-2.19 h -0.01 z m -1.26,1.72 1.64,-4.72 h 0.82 l 1.63,4.72 v 0.23 h -0.73 l -0.46,-1.39 h -1.82 l -0.45,1.39 h -0.63 z"
     id="path16" />
  <polygon
     class="cls-1"
     points="142.9,82.97 141.39,80.25 141.39,80 142.09,80 143.31,82.25 143.31,82.25 144.5,80 145.12,80 145.12,80.25 143.67,82.95 143.67,84.96 142.9,84.96 "
     id="polygon16"
     transform="translate(86.078287,-0.77548006)" />
  <polygon
     class="cls-1"
     points="149.75,80.58 148.33,80.58 148.33,80 151.94,80 151.94,80.58 150.52,80.58 150.52,84.96 149.75,84.96 "
     id="polygon17"
     transform="translate(86.078287,-0.77548006)" />
  <polygon
     class="cls-1"
     points="156.38,80 156.38,80.6 154.11,80.6 154.11,82.14 155.77,82.14 155.77,82.71 154.11,82.71 154.11,84.38 156.46,84.38 156.46,84.96 153.34,84.96 153.34,80 "
     id="polygon18"
     transform="translate(86.078287,-0.77548006)" />
  <path
     class="cls-1"
     d="m 243.64829,81.70452 c 0,-1.6 0.98,-2.52 2.27,-2.52 0.71,0 1.06,0.16 1.43,0.4 v 0.6 h -0.3 c -0.23,-0.23 -0.56,-0.41 -1.11,-0.41 -0.9,0 -1.5,0.66 -1.5,1.91 0,1.31 0.53,1.97 1.44,1.97 0.63,0 0.99,-0.25 1.27,-0.54 h 0.25 v 0.59 c -0.34,0.3 -0.83,0.53 -1.55,0.53 -1.32,0 -2.2,-0.91 -2.2,-2.52"
     id="path18" />
  <polygon
     class="cls-1"
     points="163.68,80 165.84,83.65 165.85,83.65 165.85,80 166.52,80 166.52,84.96 165.81,84.96 163.47,80.99 163.45,80.99 163.45,84.96 162.79,84.96 162.79,80 "
     id="polygon19"
     transform="translate(86.078287,-0.77548006)" />
  <path
     class="cls-1"
     d="m 257.75829,81.71452 c 0,-1.32 -0.62,-1.96 -1.45,-1.96 -0.83,0 -1.45,0.64 -1.45,1.96 0,1.32 0.62,1.93 1.45,1.93 0.83,0 1.45,-0.62 1.45,-1.93 m -3.7,-0.01 c 0,-1.63 1.03,-2.52 2.24,-2.52 1.21,0 2.24,0.89 2.24,2.52 0,1.63 -1.03,2.52 -2.24,2.52 -1.21,0 -2.24,-0.88 -2.24,-2.52"
     id="path19" />
  <polygon
     class="cls-1"
     points="173.94,80 174.7,80 174.7,84.38 176.91,84.38 176.91,84.96 173.94,84.96 "
     id="polygon20"
     transform="translate(86.078287,-0.77548006)" />
  <path
     class="cls-1"
     d="m 267.52829,81.71452 c 0,-1.32 -0.62,-1.96 -1.45,-1.96 -0.83,0 -1.45,0.64 -1.45,1.96 0,1.32 0.62,1.93 1.45,1.93 0.83,0 1.45,-0.62 1.45,-1.93 m -3.7,-0.01 c 0,-1.63 1.03,-2.52 2.24,-2.52 1.21,0 2.24,0.89 2.24,2.52 0,1.63 -1.03,2.52 -2.24,2.52 -1.21,0 -2.24,-0.88 -2.24,-2.52"
     id="path20" />
  <path
     class="cls-1"
     d="m 269.52829,81.70452 c 0,-1.64 0.94,-2.52 2.34,-2.52 0.64,0 1.01,0.13 1.39,0.33 v 0.64 h -0.28 c -0.25,-0.22 -0.55,-0.38 -1.1,-0.38 -0.93,0 -1.54,0.56 -1.54,1.9 0,1.34 0.5,1.99 1.44,1.99 0.44,0 0.69,-0.08 0.9,-0.18 v -1.28 h -0.83 v -0.54 h 1.59 v 2.17 c -0.42,0.23 -0.96,0.38 -1.66,0.38 -1.4,0 -2.25,-0.87 -2.25,-2.52"
     id="path21" />
  <path
     class="cls-1"
     d="m 275.27829,78.89452 0.3,-0.67 h 0.73 v 0.23 l -0.62,0.62 h -0.42 v -0.18 z m -0.16,0.33 h 0.78 v 4.96 h -0.78 z"
     id="path22" />
  <path
     class="cls-1"
     d="m 278.57829,82.22452 h 1.44 l -0.72,-2.19 h -0.01 l -0.72,2.19 z m -1.26,1.72 1.64,-4.72 h 0.82 l 1.63,4.72 v 0.23 h -0.73 l -0.46,-1.39 h -1.82 l -0.45,1.39 h -0.63 z"
     id="path23" />
  <polygon
     class="cls-1"
     points="223.82,45.93 223.82,26.59 235.43,19.04 207.67,1 207.67,14.02 215.94,19.39 215.94,31.71 220.6,28.69 220.6,48.02 "
     id="polygon23"
     transform="translate(86.078287,-0.77548006)" />
  <polygon
     class="cls-1"
     points="263.18,1 235.43,19.04 236.66,19.84 261.84,3.48 261.84,10.08 248.38,18.84 248.38,25.25 261.84,16.49 261.84,22.96 251.65,29.58 252.88,30.38 263.18,23.69 263.18,14.02 249.72,22.77 249.72,19.57 263.18,10.81 "
     id="polygon24"
     transform="translate(86.078287,-0.77548006)" />
  <polygon
     class="cls-1"
     points="256.58,32.79 261.84,29.37 261.84,36.21 263.18,37.08 263.18,26.89 255.35,31.99 "
     id="polygon25"
     transform="translate(86.078287,-0.77548006)" />
  <polygon
     class="cls-1"
     points="235.43,54.74 263.18,72.78 263.18,56.67 248.1,46.87 248.1,43.35 263.18,53.15 263.18,37.08 235.43,19.04 "
     id="polygon26"
     transform="translate(86.078287,-0.77548006)" />
  <path
     class="cls-1"
     d="m 295.09829,37.03452 7.88,-5.12 3.7,-2.4 v -1.62 c 0,0 -12.93,8.41 -12.93,8.41 v 35.7 l 27.76,-18.04 v -1.61 l -26.41,17.17 z m 14.8,-11.22 v 1.6 l 2.89,-1.88 v 0 c 0,0 8.73,-5.67 8.73,-5.67 v -1.6 l -11.61,7.55 z"
     id="path26" />
</svg>
