<?xml version="1.0" encoding="UTF-8"?>
<svg id="Capa_1" data-name="Capa 1" xmlns="http://www.w3.org/2000/svg" viewBox="0 0 350 86">
  <defs>
    <style>
      .cls-1 {
        fill: #fff;
        stroke-width: 0px;
      }
    </style>
  </defs>
  <path class="cls-1" d="M103.27,40.39h3.45v13.75c0,4.45-2.23,6.59-5.93,6.59s-5.89-2.36-5.89-6.76v-13.57h3.45v-4.41h-11.52v4.41h3.14v13.83c0,7.42,4.41,11,10.82,11s10.73-3.58,10.73-11.08v-13.75h3.14v-4.41h-11.39v4.41Z"/>
  <polygon class="cls-1" points="116.62 44.19 121.29 44.19 121.29 40.26 126.61 40.26 126.61 60.29 123.03 60.29 123.03 64.7 135.12 64.7 135.12 60.29 131.54 60.29 131.54 40.26 136.86 40.26 136.86 44.19 141.53 44.19 141.53 35.99 116.62 35.99 116.62 44.19"/>
  <polygon class="cls-1" points="160.9 60.33 152.35 60.33 152.35 52.22 161.04 52.22 161.04 48.03 152.35 48.03 152.35 40.35 160.86 40.35 160.86 44.19 165.57 44.19 165.57 35.99 144.15 35.99 144.15 40.39 147.42 40.39 147.42 60.29 144.15 60.29 144.15 64.7 165.62 64.7 165.62 56.49 160.9 56.49 160.9 60.33"/>
  <path class="cls-1" d="M195.55,40.44c-1.34-1.49-3-2.69-4.86-3.54-1.18-.57-2.57-1.01-4.13-1.24,0,0,0,0,0,0-.17-.03-.35-.05-.52-.07-.23-.03-.47-.05-.71-.07-.08,0-.16-.01-.24-.02-.35-.02-.7-.04-1.06-.04-.01,0-.02,0-.04,0-.02,0-.03,0-.05,0-.49,0-.97.02-1.44.06-.1,0-.2.02-.3.03-.26.03-.51.06-.76.1-7.04.99-11.99,6.01-12.53,13.32-.03.45-.06.9-.06,1.37s.03.92.06,1.36c.55,7.31,5.49,12.33,12.53,13.32.25.04.5.07.76.1.1.01.2.02.3.03.47.04.95.06,1.44.06.02,0,.03,0,.05,0,.01,0,.03,0,.04,0,.36,0,.71-.02,1.06-.04.08,0,.16-.01.24-.02.24-.02.48-.04.71-.07.17-.02.35-.04.52-.07,0,0,0,0,0,0,1.56-.23,2.95-.66,4.13-1.24,1.86-.85,3.51-2.05,4.85-3.53h0v-5.63h-4.73v3.55c-.81.65-1.69,1.2-2.64,1.61-.86.37-1.78.63-2.76.76-.14.02-.28.03-.42.04-.22.02-.45.03-.68.04-.12,0-.24,0-.37.01-6-.05-9.97-4.58-9.99-10.29.02-5.71,3.99-10.25,9.99-10.3.13,0,.25,0,.37.01.23,0,.46.02.68.04.14.01.28.02.42.04.98.13,1.9.39,2.76.76.95.41,1.83.96,2.64,1.61v3.56h4.73v-5.63h0,0Z"/>
  <path class="cls-1" d="M91.68,74.89v-3.15h.69v3.13c0,1.26-.6,1.87-1.83,1.87s-1.91-.61-1.91-1.87v-3.13h.77v3.15c0,.98.49,1.24,1.18,1.24s1.1-.27,1.1-1.24"/>
  <polygon class="cls-1" points="94.07 71.73 94.95 71.73 97.11 75.38 97.12 75.38 97.12 71.73 97.79 71.73 97.79 76.69 97.08 76.69 94.74 72.72 94.72 72.72 94.72 76.69 94.07 76.69 94.07 71.73"/>
  <rect class="cls-1" x="99.53" y="71.73" width=".78" height="4.96"/>
  <polygon class="cls-1" points="101.72 71.97 101.72 71.73 102.44 71.73 103.77 75.74 103.79 75.74 105.12 71.73 105.78 71.73 105.78 71.97 104.14 76.69 103.34 76.69 101.72 71.97"/>
  <polygon class="cls-1" points="107.17 71.73 110.21 71.73 110.21 72.33 107.94 72.33 107.94 73.87 109.6 73.87 109.6 74.44 107.94 74.44 107.94 76.11 110.29 76.11 110.29 76.69 107.17 76.69 107.17 71.73"/>
  <path class="cls-1" d="M112.52,74.06h.68c.67,0,1.01-.24,1.01-.87s-.36-.86-1.01-.86h-.68v1.74ZM113.46,74.62c-.07,0-.15,0-.23,0h-.7v2.07h-.77v-4.96h1.47c1.1,0,1.77.44,1.77,1.41,0,.68-.3,1.11-.81,1.32l1.07,1.99v.23h-.7l-1.09-2.08Z"/>
  <path class="cls-1" d="M116.43,76.32v-.62h.27c.23.24.6.45,1.22.45s1.02-.26,1.02-.8c0-.62-.5-.7-1.13-.88-.87-.25-1.31-.61-1.31-1.41,0-.86.62-1.37,1.58-1.37.59,0,1.02.14,1.32.33v.6h-.26c-.26-.21-.56-.35-1.03-.35-.63,0-.93.26-.93.72,0,.52.38.65.98.81,1.01.28,1.49.57,1.49,1.46,0,.96-.63,1.47-1.71,1.47-.7,0-1.14-.17-1.51-.42"/>
  <rect class="cls-1" x="121.1" y="71.73" width=".78" height="4.96"/>
  <path class="cls-1" d="M125.02,76.11c1.17,0,1.71-.53,1.71-1.9s-.54-1.88-1.71-1.88h-.63v3.79h.63ZM123.62,71.73h1.42c1.61,0,2.48.74,2.48,2.46s-.88,2.49-2.5,2.49h-1.39v-4.96Z"/>
  <path class="cls-1" d="M129.72,74.74h1.44l-.72-2.19h-.01l-.71,2.19ZM128.46,76.46l1.64-4.72h.82l1.63,4.72v.23h-.73l-.46-1.39h-1.82l-.45,1.39h-.63v-.23Z"/>
  <path class="cls-1" d="M135.34,76.11c1.17,0,1.71-.53,1.71-1.9s-.54-1.88-1.71-1.88h-.63v3.79h.63ZM133.95,71.73h1.42c1.61,0,2.48.74,2.48,2.46s-.88,2.49-2.5,2.49h-1.39v-4.96Z"/>
  <path class="cls-1" d="M142.88,76.11c1.17,0,1.71-.53,1.71-1.9s-.54-1.88-1.71-1.88h-.63v3.79h.63ZM141.49,71.73h1.42c1.61,0,2.48.74,2.48,2.46s-.88,2.49-2.5,2.49h-1.39v-4.96Z"/>
  <polygon class="cls-1" points="146.86 71.73 149.9 71.73 149.9 72.33 147.62 72.33 147.62 73.87 149.29 73.87 149.29 74.44 147.62 74.44 147.62 76.11 149.97 76.11 149.97 76.69 146.86 76.69 146.86 71.73"/>
  <rect class="cls-1" x="153.62" y="71.73" width=".78" height="4.96"/>
  <polygon class="cls-1" points="156.14 71.73 157.02 71.73 159.18 75.38 159.2 75.38 159.2 71.73 159.86 71.73 159.86 76.69 159.16 76.69 156.81 72.72 156.8 72.72 156.8 76.69 156.14 76.69 156.14 71.73"/>
  <path class="cls-1" d="M161.33,74.21c0-1.64.94-2.52,2.34-2.52.64,0,1.01.13,1.39.33v.64h-.28c-.25-.22-.55-.38-1.1-.38-.93,0-1.54.56-1.54,1.9s.5,1.99,1.44,1.99c.44,0,.69-.08.9-.18v-1.28h-.83v-.54h1.59v2.17c-.42.23-.96.38-1.66.38-1.4,0-2.25-.87-2.25-2.52"/>
  <polygon class="cls-1" points="166.91 71.73 169.95 71.73 169.95 72.33 167.67 72.33 167.67 73.87 169.34 73.87 169.34 74.44 167.67 74.44 167.67 76.11 170.02 76.11 170.02 76.69 166.91 76.69 166.91 71.73"/>
  <polygon class="cls-1" points="171.49 71.73 172.37 71.73 174.53 75.38 174.54 75.38 174.54 71.73 175.21 71.73 175.21 76.69 174.5 76.69 172.16 72.72 172.14 72.72 172.14 76.69 171.49 76.69 171.49 71.73"/>
  <rect class="cls-1" x="176.95" y="71.73" width=".78" height="4.96"/>
  <polygon class="cls-1" points="179.47 71.73 182.51 71.73 182.51 72.33 180.24 72.33 180.24 73.87 181.9 73.87 181.9 74.44 180.24 74.44 180.24 76.11 182.59 76.11 182.59 76.69 179.47 76.69 179.47 71.73"/>
  <path class="cls-1" d="M184.82,74.06h.68c.67,0,1.01-.24,1.01-.87s-.36-.86-1.01-.86h-.68v1.74ZM185.75,74.62c-.07,0-.15,0-.23,0h-.7v2.07h-.76v-4.96h1.47c1.1,0,1.77.44,1.77,1.41,0,.68-.3,1.11-.81,1.32l1.07,1.99v.23h-.7l-1.09-2.08Z"/>
  <path class="cls-1" d="M189.2,71.4l.31-.67h.73v.23l-.62.62h-.42v-.18ZM189.04,71.73h.78v4.96h-.78v-4.96Z"/>
  <path class="cls-1" d="M192.5,74.74h1.44l-.72-2.19h-.01l-.71,2.19ZM191.24,76.46l1.64-4.72h.82l1.63,4.72v.23h-.73l-.46-1.39h-1.82l-.45,1.39h-.63v-.23Z"/>
  <polygon class="cls-1" points="142.9 84.96 142.9 82.97 141.39 80.25 141.39 80 142.09 80 143.31 82.25 143.31 82.25 144.5 80 145.12 80 145.12 80.25 143.67 82.95 143.67 84.96 142.9 84.96"/>
  <polygon class="cls-1" points="149.75 84.96 149.75 80.58 148.33 80.58 148.33 80 151.94 80 151.94 80.58 150.52 80.58 150.52 84.96 149.75 84.96"/>
  <polygon class="cls-1" points="153.34 80 156.38 80 156.38 80.6 154.11 80.6 154.11 82.14 155.77 82.14 155.77 82.71 154.11 82.71 154.11 84.38 156.46 84.38 156.46 84.96 153.34 84.96 153.34 80"/>
  <path class="cls-1" d="M157.57,82.48c0-1.6.98-2.52,2.27-2.52.71,0,1.06.16,1.43.4v.6h-.3c-.23-.23-.56-.41-1.11-.41-.9,0-1.5.66-1.5,1.91,0,1.31.53,1.97,1.44,1.97.63,0,.99-.25,1.27-.54h.25v.59c-.34.3-.83.53-1.55.53-1.32,0-2.2-.91-2.2-2.52"/>
  <polygon class="cls-1" points="162.79 80 163.68 80 165.84 83.65 165.85 83.65 165.85 80 166.52 80 166.52 84.96 165.81 84.96 163.47 80.99 163.45 80.99 163.45 84.96 162.79 84.96 162.79 80"/>
  <path class="cls-1" d="M171.68,82.49c0-1.32-.62-1.96-1.45-1.96s-1.45.64-1.45,1.96.62,1.93,1.45,1.93,1.45-.62,1.45-1.93M167.98,82.48c0-1.63,1.03-2.52,2.24-2.52s2.24.89,2.24,2.52-1.03,2.52-2.24,2.52-2.24-.88-2.24-2.52"/>
  <polygon class="cls-1" points="173.94 84.96 173.94 80 174.7 80 174.7 84.38 176.91 84.38 176.91 84.96 173.94 84.96"/>
  <path class="cls-1" d="M181.45,82.49c0-1.32-.62-1.96-1.45-1.96s-1.45.64-1.45,1.96.62,1.93,1.45,1.93,1.45-.62,1.45-1.93M177.75,82.48c0-1.63,1.03-2.52,2.24-2.52s2.24.89,2.24,2.52-1.03,2.52-2.24,2.52-2.24-.88-2.24-2.52"/>
  <path class="cls-1" d="M183.45,82.48c0-1.64.94-2.52,2.34-2.52.64,0,1.01.13,1.39.33v.64h-.28c-.25-.22-.55-.38-1.1-.38-.93,0-1.54.56-1.54,1.9s.5,1.99,1.44,1.99c.44,0,.69-.08.9-.18v-1.28h-.83v-.54h1.59v2.17c-.42.23-.96.38-1.66.38-1.4,0-2.25-.87-2.25-2.52"/>
  <path class="cls-1" d="M189.2,79.67l.3-.67h.73v.23l-.62.62h-.42v-.18ZM189.04,80h.78v4.96h-.78v-4.96Z"/>
  <path class="cls-1" d="M192.5,83h1.44l-.72-2.19h-.01l-.72,2.19ZM191.24,84.72l1.64-4.72h.82l1.63,4.72v.23h-.73l-.46-1.39h-1.82l-.45,1.39h-.63v-.23Z"/>
  <polygon class="cls-1" points="220.6 48.02 223.82 45.93 223.82 26.59 235.43 19.04 207.67 1 207.67 14.02 215.94 19.39 215.94 31.71 220.6 28.69 220.6 48.02"/>
  <polygon class="cls-1" points="263.18 10.81 263.18 1 235.43 19.04 236.66 19.84 261.84 3.48 261.84 10.08 248.38 18.84 248.38 25.25 261.84 16.49 261.84 22.96 251.65 29.58 252.88 30.38 263.18 23.69 263.18 14.02 249.72 22.77 249.72 19.57 263.18 10.81"/>
  <polygon class="cls-1" points="255.35 31.99 256.58 32.79 261.84 29.37 261.84 36.21 263.18 37.08 263.18 26.89 255.35 31.99"/>
  <polygon class="cls-1" points="235.43 19.04 235.43 54.74 263.18 72.78 263.18 56.67 248.1 46.87 248.1 43.35 263.18 53.15 263.18 37.08 235.43 19.04"/>
  <path class="cls-1" d="M209.02,37.81l7.88-5.12,3.7-2.4v-1.62s-12.93,8.41-12.93,8.41v35.7l27.76-18.04v-1.61l-26.41,17.17v-32.49ZM223.82,26.59v1.6l2.89-1.88h0s8.73-5.67,8.73-5.67v-1.6l-11.61,7.55Z"/>
</svg>